# xmcd CD database file
#
# Track frame offsets:
#	150
#	15482
#	36188
#	64197
#	87286
#	100614
#	116784
#	137191
#	155791
#	177594
#	199492
#	215475
#
# Disc length: 3016 seconds
#
# Revision: 0
# Processed by: cddbd v1.5.2PL0 Copyright (c) Steve Scherf et al.
# Submitted via: CDex 1.51
#
DISCID=b00bc60c
DTITLE=Red, Hot and Blues - Blues it up
DYEAR=1998
DGENRE=Blues
TTITLE0=She's fine
TTITLE1=Stoop Down Baby
TTITLE2=Southbound
TTITLE3=Same Ol' Blues
TTITLE4=Blues It Up
TTITLE5=Some You Win
TTITLE6=Anything You Want Me To Do
TTITLE7=Steal Away
TTITLE8=What You Want Me To Do
TTITLE9=Cry The Blues
TTITLE10=Feel So Bad
TTITLE11=Too Tired
EXTD=YEAR: 1998
EXTT0=
EXTT1=
EXTT2=
EXTT3=
EXTT4=
EXTT5=
EXTT6=
EXTT7=
EXTT8=
EXTT9=
EXTT10=
EXTT11=
PLAYORDER=
